<?xml version="1.0" encoding="UTF-8"?>
<svg width="14px" height="14px" viewBox="0 0 14 14" version="1.1" xmlns="http://www.w3.org/2000/svg" xmlns:xlink="http://www.w3.org/1999/xlink">
    <!-- Generator: Sketch 52.2 (67145) - http://www.bohemiancoding.com/sketch -->
    <title>矩形</title>
    <desc>Created with Sketch.</desc>
    <g id="Page-1" stroke="none" stroke-width="1" fill="none" fill-rule="evenodd">
        <g id="福利站商品管理-copy" fill="#FFFFFF">
            <g id="integral" transform="translate(1.000000, 2.000000)">
                <path d="M10.8951691,3.71830626 L5.99162716,9.66698269 L1.08910786,3.7223968 C1.03030626,3.65081225 1.00218375,3.45651132 1.03797603,3.36958722 L1.94147537,1.18319041 C1.97113182,1.11109454 2.10356325,1.02263648 2.18179494,1.02263648 L9.80350466,1.02263648 C9.8802024,1.02263648 10.0146791,1.1126285 10.0438242,1.18319041 L10.9473236,3.36651931 C10.9846498,3.45651132 10.9575499,3.64365379 10.8961917,3.71830626 M11.8922397,2.97536085 L10.988229,0.791520639 C10.8005752,0.340537949 10.2913023,0 9.80299334,0 L2.1807723,0 C1.69195206,0 1.18216778,0.341049268 0.995536618,0.793054594 L0.0920372836,2.9794514 C-0.0869241012,3.41304927 0.00204527297,4.01180293 0.29963249,4.37279361 L5.27066844,10.400213 C5.45474301,10.6226365 5.71756059,10.750466 5.99162716,10.750466 L5.99213848,10.750466 C6.26671638,10.750466 6.52953395,10.6221252 6.7130972,10.3997017 L11.6841332,4.36870306 C11.9868336,4.00208788 12.0737577,3.41611718 11.8917284,2.97536085" id="形状" fill-rule="nonzero"></path>
                <path d="M7.78175233,3.06790945 L4.20252463,3.06790945 C3.92013137,3.06790945 3.69120639,3.29683443 3.69120639,3.5792277 C3.69120639,3.86162096 3.92013137,4.09054594 4.20252463,4.09054594 L7.78175233,4.09054594 C8.0641456,4.09054594 8.29307057,3.86162096 8.29307057,3.5792277 C8.29307057,3.29683443 8.0641456,3.06790945 7.78175233,3.06790945" id="路径"></path>
            </g>
        </g>
    </g>
</svg>