<?xml version="1.0" encoding="UTF-8"?>
<svg width="12px" height="14px" viewBox="0 0 12 14" version="1.1" xmlns="http://www.w3.org/2000/svg" xmlns:xlink="http://www.w3.org/1999/xlink">
    <!-- Generator: Sketch 52.2 (67145) - http://www.bohemiancoding.com/sketch -->
    <title>地址库管理</title>
    <desc>Created with Sketch.</desc>
    <g id="Page-1" stroke="none" stroke-width="1" fill="none" fill-rule="evenodd">
        <g id="地址库管理" transform="translate(-1.000000, 0.000000)" fill="#FFFFFF">
            <path d="M6.99309767,0 C9.97557536,0 12.4020767,2.42225722 12.4020767,5.39949869 C12.4035097,6.50055643 12.0660583,7.57528609 11.4354887,8.47791864 C11.4176305,8.5107874 11.3842473,8.56728346 11.3456462,8.619021 L7.41596381,13.7927375 C7.29036801,13.933399 7.14553599,13.999706 6.99309767,13.999706 C6.83887719,13.999706 6.69490869,13.9338215 6.58768559,13.8148399 L2.63963047,8.61946194 C2.60253599,8.56913911 2.57095331,8.51740157 2.53995856,8.46379003 C1.91721578,7.56876378 1.58421053,6.50480052 1.58421053,5.39949869 C1.58421053,2.42225722 4.0101974,0 6.99309767,0 Z M6.99310683,1.13910761 C4.57760487,1.13910761 2.61308192,3.09911176 2.61308192,5.50818938 C2.61308192,6.40256021 2.88274391,7.26348133 3.38703044,7.98770465 C3.41212946,8.0310852 3.43770457,8.07294937 3.46774306,8.11366881 L6.66481102,12.3175834 C6.75163846,12.4138591 6.86822171,12.4671705 6.99310683,12.4671705 C7.11654879,12.4671705 7.2338313,12.4135171 7.33553665,12.2996989 L10.5177267,8.11331201 C10.5489852,8.07144785 10.5760183,8.02573325 10.5904797,7.99913701 C11.1011042,7.26875895 11.3743666,6.39912604 11.3732061,5.50818938 C11.3732061,3.09911176 9.4082666,1.13910761 6.99310683,1.13910761 Z" id="路径-3"></path>
            <path d="M6.99675383,8.253 C5.43816066,8.253 4.17476171,6.98950919 4.17476171,5.43091601 C4.17476171,3.87232283 5.43816066,2.60892388 6.99675383,2.60892388 C8.55534701,2.60892388 9.81883782,3.87232283 9.81883782,5.43091601 C9.81883782,6.98950919 8.55534701,8.253 6.99675383,8.253 Z M6.99675383,7.31233596 C8.03582207,7.31233596 8.87817378,6.46998425 8.87817378,5.43091601 C8.87817378,4.39186614 8.03582207,3.54958793 6.99675383,3.54958793 C5.95770396,3.54958793 5.11542575,4.39186614 5.11542575,5.43091601 C5.11542575,6.46998425 5.95770396,7.31233596 6.99675383,7.31233596 Z" id="Fill-2"></path>
        </g>
    </g>
</svg>