<?xml version="1.0" encoding="UTF-8"?>
<svg aria-hidden="true" class="svg-icon"><use xmlns:xlink="http://www.w3.org/1999/xlink" xlink:href="#icon-contract">
    <svg class="icon" viewBox="0 0 1024 1024" id="icon-contract" width="100%" height="100%"><path d="M821.8 629.2c-101.7 0-206.6-63.8-207-131.9 0-1.4-10.8-55.3 31.8-105.5 36.9-34.8 60-84.3 60-139.2C706.6 147 621 61.4 515.4 61.4S324.2 147 324.2 252.6c0 48.9 18.3 93.4 48.5 127.2h-0.2c0.4 0.4 0.9 0.8 1.3 1.2 2.7 3 5.6 6 8.5 8.8C422.8 436 416 497 416 497c0 68.1-105.1 132.1-207 132.1-41.2 0-74.8 25.6-74.8 57v56.7c0 10.6 11.3 19.2 25.4 19.2H871c13.9 0 25.4-8.7 25.3-19.2v-56.7c0.3-31.3-33.3-56.9-74.5-56.9z m-53 323.9H260.1c-35 0-63.6-28.7-63.6-63.6 0-35 28.7-63.6 63.6-63.6h508.5c35 0 63.6 28.7 63.6 63.6 0.2 34.9-28.4 63.6-63.4 63.6z"></path></svg>
</use></svg>
