<?xml version="1.0" encoding="UTF-8"?>
<svg width="14px" height="14px" viewBox="0 0 14 14" version="1.1" xmlns="http://www.w3.org/2000/svg" xmlns:xlink="http://www.w3.org/1999/xlink">
    <!-- Generator: Sketch 52.2 (67145) - http://www.bohemiancoding.com/sketch -->
    <title>企业商品库管理</title>
    <desc>Created with Sketch.</desc>
    <g id="Page-1" stroke="none" stroke-width="1" fill="none" fill-rule="evenodd">
        <g id="企业商品库管理" fill="#FFFFFF">
            <path d="M1.68740526,12.6516158 L0.744173684,12.6516158 L0.744173684,1.33366579 C0.744173684,0.812773684 1.16649474,0.390526316 1.68740526,0.390526316 L7.34633421,0.390526316 C7.86722632,0.390526316 8.28947368,0.812773684 8.28947368,1.33366579 L8.28947368,12.6516158 L7.34633421,12.6516158 L7.34633421,1.33366579 L1.68740526,1.33366579 L1.68740526,12.6516158 Z M12.0621237,12.6516158 L13.0052632,12.6516158 L13.0052632,6.52107105 L12.0621237,6.52107105 L12.0621237,12.6516158 Z M0.508457895,13.5947553 C0.247965789,13.5947553 0.0368421053,13.3836316 0.0368421053,13.1231395 C0.0368421053,12.8627395 0.247965789,12.6516158 0.508457895,12.6516158 L13.0052632,12.6516158 C13.2656816,12.6516158 13.4768789,12.8627395 13.4768789,13.1231395 C13.4768789,13.3836316 13.2656816,13.5947553 13.0052632,13.5947553 L0.508457895,13.5947553 Z" id="Fill-1"></path>
            <path d="M13.6484895,6.55308684 C13.8912053,6.64793684 14.0111447,6.92158158 13.9163868,7.16429737 C13.8215368,7.40701316 13.5478921,7.52695263 13.3051763,7.43212105 L7.64344737,5.22187105 C7.40432368,5.12488421 7.28753421,4.85374474 7.38129737,4.61340526 C7.47513421,4.37306579 7.74468947,4.25268421 7.98624474,4.34327895 L13.6489868,6.55308684 L13.6484895,6.55308684 Z M9.70982895,8.08339737 C9.97032105,8.08339737 10.1814447,8.29452105 10.1814447,8.55493947 C10.1814447,8.81543158 9.97032105,9.02655526 9.70982895,9.02655526 L7.81411842,9.02655526 C7.55371842,9.02655526 7.34252105,8.81543158 7.34252105,8.55493947 C7.34252105,8.29452105 7.55371842,8.08339737 7.81411842,8.08339737 L9.70982895,8.08339737 Z M9.70982895,9.96969474 C9.97032105,9.96969474 10.1814447,10.1808184 10.1814447,10.4412921 C10.1814447,10.7017105 9.97032105,10.9128342 9.70982895,10.9128342 L7.81411842,10.9128342 C7.55371842,10.9128342 7.34252105,10.7017105 7.34252105,10.4412921 C7.34252105,10.1808184 7.55371842,9.96969474 7.81411842,9.96969474 L9.70982895,9.96969474 Z M4.0453,7.93582632 C4.0453,8.19622632 3.83410263,8.40735 3.57368421,8.40735 C3.31326579,8.40735 3.10206842,8.19622632 3.10206842,7.93582632 L3.10206842,6.99259474 C3.10206842,6.73219474 3.31326579,6.52107105 3.57368421,6.52107105 C3.83410263,6.52107105 4.0453,6.73219474 4.0453,6.99259474 L4.0453,7.93582632 Z M4.0453,4.6347 C4.0453,4.89519211 3.83410263,5.10631579 3.57368421,5.10631579 C3.31326579,5.10631579 3.10206842,4.89519211 3.10206842,4.6347 L3.10206842,3.69156053 C3.10206842,3.43116053 3.31326579,3.22003684 3.57368421,3.22003684 C3.83410263,3.22003684 4.0453,3.43116053 4.0453,3.69156053 L4.0453,4.6347 Z M5.93157895,4.6347 C5.93157895,4.89519211 5.72045526,5.10631579 5.45996316,5.10631579 C5.19956316,5.10631579 4.98843947,4.89519211 4.98843947,4.6347 L4.98843947,3.69156053 C4.98843947,3.43116053 5.19956316,3.22003684 5.45996316,3.22003684 C5.72045526,3.22003684 5.93157895,3.43116053 5.93157895,3.69156053 L5.93157895,4.6347 Z M5.93157895,7.93582632 C5.93157895,8.19622632 5.72045526,8.40735 5.45996316,8.40735 C5.19956316,8.40735 4.98843947,8.19622632 4.98843947,7.93582632 L4.98843947,6.99259474 C4.98843947,6.73219474 5.19956316,6.52107105 5.45996316,6.52107105 C5.72045526,6.52107105 5.93157895,6.73219474 5.93157895,6.99259474 L5.93157895,7.93582632 Z M4.0453,13.1231395 L3.10206842,13.1231395 L3.10206842,9.96969474 L6.07305263,9.96969474 L6.07305263,13.1231395 L5.12989474,13.1231395 L5.12989474,10.9128342 L4.0453,10.9128342 L4.0453,13.1231395 Z" id="Fill-3"></path>
        </g>
    </g>
</svg>