<?xml version="1.0" encoding="UTF-8"?>
<svg width="14px" height="14px" viewBox="0 0 14 14" version="1.1" xmlns="http://www.w3.org/2000/svg" xmlns:xlink="http://www.w3.org/1999/xlink">
    <!-- Generator: Sketch 52.2 (67145) - http://www.bohemiancoding.com/sketch -->
    <title>商品属性管理</title>
    <desc>Created with Sketch.</desc>
    <defs>
        <polygon id="path-1" points="0.737947368 0.742736842 13.2473342 0.742736842 13.2473342 13.2263158 0.737947368 13.2263158"></polygon>
    </defs>
    <g id="Page-1" stroke="none" stroke-width="1" fill="none" fill-rule="evenodd">
        <g id="商品属性管理">
            <mask id="mask-2" fill="white">
                <use xlink:href="#path-1"></use>
            </mask>
            <g id="Clip-2"></g>
            <path d="M2.15159737,1.90845789 C1.89110526,1.90845789 1.67998158,2.11958158 1.67998158,2.37998158 L1.67998158,5.20949211 C1.67998158,5.46991053 1.89110526,5.68101579 2.15159737,5.68101579 L4.98101579,5.68101579 C5.24150789,5.68101579 5.45263158,5.46991053 5.45263158,5.20949211 L5.45263158,2.37998158 C5.45263158,2.11958158 5.24150789,1.90845789 4.98101579,1.90845789 L2.15159737,1.90845789 Z M2.15159737,0.965226316 L4.98101579,0.965226316 C5.7624,0.965226316 6.39577105,1.59867105 6.39577105,2.37998158 L6.39577105,5.20949211 C6.39577105,5.99080263 5.7624,6.62424737 4.98101579,6.62424737 L2.15159737,6.62424737 C1.37021316,6.62424737 0.736842105,5.99080263 0.736842105,5.20949211 L0.736842105,2.37998158 C0.736842105,1.59867105 1.37021316,0.965226316 2.15159737,0.965226316 Z M2.15159737,8.51052632 C1.89110526,8.51052632 1.67998158,8.72165 1.67998158,8.98214211 L1.67998158,11.8115605 C1.67998158,12.0720526 1.89110526,12.2831763 2.15159737,12.2831763 L4.98101579,12.2831763 C5.24150789,12.2831763 5.45263158,12.0720526 5.45263158,11.8115605 L5.45263158,8.98214211 C5.45263158,8.72165 5.24150789,8.51052632 4.98101579,8.51052632 L2.15159737,8.51052632 Z M2.15159737,7.56738684 L4.98101579,7.56738684 C5.7624,7.56738684 6.39577105,8.20075789 6.39577105,8.98214211 L6.39577105,11.8115605 C6.39577105,12.5929447 5.7624,13.2263158 4.98101579,13.2263158 L2.15159737,13.2263158 C1.37021316,13.2263158 0.736842105,12.5929447 0.736842105,11.8115605 L0.736842105,8.98214211 C0.736842105,8.20075789 1.37021316,7.56738684 2.15159737,7.56738684 Z M8.75366579,8.51052632 C8.49324737,8.51052632 8.28214211,8.72165 8.28214211,8.98214211 L8.28214211,11.8115605 C8.28214211,12.0720526 8.49324737,12.2831763 8.75366579,12.2831763 L11.5831763,12.2831763 C11.8435947,12.2831763 12.0547,12.0720526 12.0547,11.8115605 L12.0547,8.98214211 C12.0547,8.72165 11.8435947,8.51052632 11.5831763,8.51052632 L8.75366579,8.51052632 Z M8.75366579,7.56738684 L11.5831763,7.56738684 C12.3644868,7.56738684 12.9979316,8.20075789 12.9979316,8.98214211 L12.9979316,11.8115605 C12.9979316,12.5929447 12.3644868,13.2263158 11.5831763,13.2263158 L8.75366579,13.2263158 C7.97235526,13.2263158 7.33891053,12.5929447 7.33891053,11.8115605 L7.33891053,8.98214211 C7.33891053,8.20075789 7.97235526,7.56738684 8.75366579,7.56738684 Z M8.19773684,3.47452368 C8.10915,3.56296316 8.05935789,3.68299474 8.05935789,3.80820263 C8.05935789,3.93331842 8.10915,4.05335 8.19773684,4.14178947 L9.84820789,5.79233421 C9.93664737,5.88092105 10.0566789,5.93063947 10.1818684,5.93063947 C10.3070026,5.93063947 10.4270342,5.88092105 10.5154737,5.79233421 L12.1660184,4.14178947 C12.2546053,4.05335 12.3043237,3.93331842 12.3043237,3.80820263 C12.3043237,3.68299474 12.2546053,3.56296316 12.1660184,3.47452368 L10.5154737,1.82397895 C10.4270342,1.73546579 10.3070026,1.68567368 10.1818684,1.68567368 C10.0566789,1.68567368 9.93664737,1.73546579 9.84820789,1.82397895 L8.19773684,3.47452368 Z M7.53089474,2.8077 L9.18138421,1.15721053 C9.44675789,0.891836842 9.80661316,0.742736842 10.1818684,0.742736842 C10.5571421,0.742736842 10.9169974,0.891836842 11.1822974,1.15721053 L12.8328605,2.8077 C13.0982342,3.07307368 13.2473342,3.43292895 13.2473342,3.80820263 C13.2473342,4.18345789 13.0982342,4.54331316 12.8328605,4.80861316 L11.1822974,6.45917632 C10.9169974,6.72455 10.5571421,6.87365 10.1818684,6.87365 C9.80661316,6.87365 9.44675789,6.72455 9.18138421,6.45917632 L7.53089474,4.80861316 C7.26552105,4.54331316 7.11642105,4.18345789 7.11642105,3.80820263 C7.11642105,3.43292895 7.26552105,3.07307368 7.53089474,2.8077 Z" id="Fill-1" fill="#FFFFFF" mask="url(#mask-2)"></path>
        </g>
    </g>
</svg>