<?xml version="1.0" encoding="UTF-8"?>
<svg width="14px" height="14px" viewBox="0 0 14 14" version="1.1" xmlns="http://www.w3.org/2000/svg" xmlns:xlink="http://www.w3.org/1999/xlink">
    <!-- Generator: Sketch 52.2 (67145) - http://www.bohemiancoding.com/sketch -->
    <title>商品库管理</title>
    <desc>Created with Sketch.</desc>
    <defs>
        <polygon id="path-1" points="0.406368421 0.854736842 13.6094921 0.854736842 13.6094921 13.1158263 0.406368421 13.1158263"></polygon>
    </defs>
    <g id="Page-1" stroke="none" stroke-width="1" fill="none" fill-rule="evenodd">
        <g id="商品库管理">
            <mask id="mask-2" fill="white">
                <use xlink:href="#path-1"></use>
            </mask>
            <g id="Clip-2"></g>
            <path d="M11.2515974,10.2863158 L6.06419211,10.2863158 C5.80377368,10.2863158 5.59266842,10.4974395 5.59266842,10.7579316 C5.59266842,11.0183316 5.80377368,11.2294553 6.06419211,11.2294553 L11.2515974,11.2294553 C11.5120158,11.2294553 11.7231211,11.0183316 11.7231211,10.7579316 C11.7231211,10.4974395 11.5120158,10.2863158 11.2515974,10.2863158 Z M11.2515974,6.51366579 L6.06419211,6.51366579 C5.80377368,6.51366579 5.59266842,6.72478947 5.59266842,6.98528158 C5.59266842,7.2457 5.80377368,7.45680526 6.06419211,7.45680526 L11.2515974,7.45680526 C11.5120158,7.45680526 11.7231211,7.2457 11.7231211,6.98528158 C11.7231211,6.72478947 11.5120158,6.51366579 11.2515974,6.51366579 Z M11.2515974,2.74101579 L6.06419211,2.74101579 C5.80377368,2.74101579 5.59266842,2.95221316 5.59266842,3.21263158 C5.59266842,3.47305 5.80377368,3.68424737 6.06419211,3.68424737 L11.2515974,3.68424737 C11.5120158,3.68424737 11.7231211,3.47305 11.7231211,3.21263158 C11.7231211,2.95221316 11.5120158,2.74101579 11.2515974,2.74101579 Z M3.94210526,10.2863158 L2.99896579,10.2863158 C2.73847368,10.2863158 2.52735,10.4974395 2.52735,10.7579316 C2.52735,11.0183316 2.73847368,11.2294553 2.99896579,11.2294553 L3.94210526,11.2294553 C4.20252368,11.2294553 4.41372105,11.0183316 4.41372105,10.7579316 C4.41372105,10.4974395 4.20252368,10.2863158 3.94210526,10.2863158 Z M3.94210526,6.51366579 L2.99896579,6.51366579 C2.73847368,6.51366579 2.52735,6.72478947 2.52735,6.98528158 C2.52735,7.2457 2.73847368,7.45680526 2.99896579,7.45680526 L3.94210526,7.45680526 C4.20252368,7.45680526 4.41372105,7.2457 4.41372105,6.98528158 C4.41372105,6.72478947 4.20252368,6.51366579 3.94210526,6.51366579 Z M3.94210526,2.74101579 L2.99896579,2.74101579 C2.73847368,2.74101579 2.52735,2.95221316 2.52735,3.21263158 C2.52735,3.47305 2.73847368,3.68424737 2.99896579,3.68424737 L3.94210526,3.68424737 C4.20252368,3.68424737 4.41372105,3.47305 4.41372105,3.21263158 C4.41372105,2.95221316 4.20252368,2.74101579 3.94210526,2.74101579 Z" id="Fill-1" fill="#FFFFFF" mask="url(#mask-2)"></path>
            <path d="M12.1947368,0.854736842 L1.82001842,0.854736842 C1.03863421,0.854736842 0.405263158,1.48810789 0.405263158,2.26949211 L0.405263158,11.7010711 C0.405263158,12.4823816 1.03863421,13.1158263 1.82001842,13.1158263 L12.1947368,13.1158263 C12.9760474,13.1158263 13.6094921,12.4823816 13.6094921,11.7010711 L13.6094921,2.26949211 C13.6094921,1.48810789 12.9760474,0.854736842 12.1947368,0.854736842 Z M12.6663526,11.7010711 C12.6663526,11.9614895 12.4551553,12.1725947 12.1947368,12.1725947 L1.82001842,12.1725947 C1.55952632,12.1725947 1.34840263,11.9614895 1.34840263,11.7010711 L1.34840263,9.34317632 L11.2515974,9.34317632 C11.5120158,9.34317632 11.7231211,9.13205263 11.7231211,8.87156053 C11.7231211,8.61116053 11.5120158,8.40003684 11.2515974,8.40003684 L1.34840263,8.40003684 L1.34840263,5.57052632 L11.2515974,5.57052632 C11.5120158,5.57052632 11.7231211,5.35940263 11.7231211,5.09891053 C11.7231211,4.83851053 11.5120158,4.62738684 11.2515974,4.62738684 L1.34840263,4.62738684 L1.34840263,2.26949211 C1.34840263,2.009 1.55952632,1.79787632 1.82001842,1.79787632 L12.1947368,1.79787632 C12.4551553,1.79787632 12.6663526,2.009 12.6663526,2.26949211 L12.6663526,11.7010711 Z" id="Fill-3" fill="#FFFFFF" mask="url(#mask-2)"></path>
        </g>
    </g>
</svg>