<?xml version="1.0" encoding="UTF-8"?>
<svg width="14px" height="14px" viewBox="0 0 14 14" version="1.1" xmlns="http://www.w3.org/2000/svg" xmlns:xlink="http://www.w3.org/1999/xlink">
    <!-- Generator: Sketch 52.2 (67145) - http://www.bohemiancoding.com/sketch -->
    <title>首页配置</title>
    <desc>Created with Sketch.</desc>
    <defs>
        <polygon id="path-1" points="0.00109375 0.000660807292 13.3933215 0.000660807292 13.3933215 14 0.00109375 14"></polygon>
    </defs>
    <g id="Page-1" stroke="none" stroke-width="1" fill="none" fill-rule="evenodd">
        <g id="首页配置">
            <path d="M9.1646483,9.33005208 C8.98242955,9.14783333 8.68698945,9.14783333 8.5047707,9.33005208 C8.32255195,9.51228906 8.32255195,9.80772917 8.5047707,9.98994792 L10.1381223,11.6232266 C10.3203592,11.8054453 10.6157993,11.8054453 10.7980181,11.6232266 C10.9802368,11.4410807 10.9802368,11.1456406 10.7980181,10.9634219 L9.1646483,9.33005208 Z" id="Fill-1" fill="#FFFFFF"></path>
            <g id="分组" transform="translate(0.294737, 0.000000)">
                <mask id="mask-2" fill="white">
                    <use xlink:href="#path-1"></use>
                </mask>
                <g id="Clip-3"></g>
                <path d="M9.60307031,7.86938542 C9.80751042,6.59241406 9.3127526,5.30363021 8.30622917,4.49157552 C7.29970573,3.67952083 5.93550781,3.46839063 4.73061458,3.93821094 C4.5835599,3.99525 4.47526042,4.12270833 4.44286719,4.27709115 C4.41045573,4.43147396 4.45830729,4.59176302 4.57003385,4.70305208 L5.9966849,6.12963021 C6.08427604,6.21714844 6.13347656,6.33585677 6.13347656,6.45961458 C6.13347656,6.5833724 6.08427604,6.7020625 5.9966849,6.78950781 L5.53980729,7.24638542 C5.45230729,7.33395833 5.33359896,7.38325 5.20984115,7.38325 C5.08608333,7.38325 4.967375,7.33395833 4.87992969,7.24638542 L3.44866667,5.81510417 C3.33750521,5.70396094 3.17792708,5.65623698 3.02398177,5.6880651 C2.87009115,5.71996615 2.7425599,5.82720833 2.68473698,5.97333333 C2.20864583,7.17616667 2.41308594,8.54178646 3.22051042,9.55252083 C4.02800781,10.5631641 5.31480469,11.0641016 6.59305208,10.8653672 L8.71966667,12.9919818 C9.548875,13.821263 10.8934219,13.821263 11.7226302,12.9919818 C12.5519115,12.1627734 12.5519115,10.8182266 11.7226302,9.98901823 L9.60307031,7.86938542 Z M11.0627526,12.3321042 C10.5980547,12.7968021 9.84467969,12.7968021 9.37998177,12.3321042 L6.89589323,9.84808854 L6.64389323,9.90642187 C5.80883333,10.0999609 4.93155469,9.88142969 4.28485677,9.31865885 C3.63821354,8.75590625 3.30048177,7.91729167 3.37680729,7.06345573 L4.22005208,7.90675521 C4.48258854,8.1693099 4.83871354,8.31683854 5.2100599,8.31683854 C5.58140625,8.31683854 5.93758594,8.1693099 6.2001224,7.90675521 L6.657,7.44989583 C6.91960938,7.18728646 7.06715625,6.83116146 7.06715625,6.4598151 C7.06715625,6.08846875 6.91960938,5.73236198 6.657,5.46982552 L5.82208594,4.63491146 C6.6755026,4.56463802 7.51098177,4.90727344 8.06925,5.55661458 C8.62751823,6.20590104 8.84107292,7.08330729 8.64361458,7.91652604 L8.5838776,8.16994792 L11.0632448,10.6493333 C11.5271042,11.1141042 11.5271042,11.8673333 11.0627526,12.3321042 Z" id="Fill-2" fill="#FFFFFF" mask="url(#mask-2)"></path>
                <path d="M12.9830859,5.7068776 L7.6864375,0.410229167 C7.13936198,-0.135861979 6.25346094,-0.135861979 5.70636719,0.410229167 L0.409736979,5.7068776 C0.112291667,6.00452344 -0.0354557292,6.42016667 0.00725520833,6.83878125 C0.0499114583,7.25741406 0.278632812,7.63461198 0.629981771,7.86610417 L0.629981771,12.5999818 C0.629981771,13.3718776 1.25810417,14 2.02998177,14 L6.69664844,14 C6.95435417,14 7.16335156,13.7910755 7.16335156,13.5333151 C7.16335156,13.2756094 6.95435417,13.0666849 6.69664844,13.0666849 L2.02998177,13.0666849 C1.77285938,13.0666849 1.56329688,12.8576146 1.56329688,12.5999818 L1.56329688,7.57963281 C1.56329688,7.3803151 1.43682292,7.20301823 1.24833333,7.13814062 C1.09595573,7.08595052 0.9813125,6.95883854 0.945,6.80197656 C0.908614583,6.64509635 0.955755208,6.48061458 1.06961458,6.36675521 L6.36624479,1.07003385 C6.54875521,0.888106771 6.84404948,0.888106771 7.0265599,1.07003385 L12.3232812,6.36717448 C12.4114193,6.45491146 12.46,6.57205208 12.46,6.69715885 C12.4607109,6.89653125 12.3338906,7.07413802 12.1449635,7.13814062 C11.9564193,7.2028724 11.8296536,7.3801875 11.829526,7.57963281 L11.829526,8.6958776 C11.829526,8.95358333 12.0384505,9.16250781 12.2962109,9.16250781 C12.5539167,9.16250781 12.7628411,8.95358333 12.7628411,8.6958776 L12.7628411,7.86659635 C13.1574661,7.6086901 13.394737,7.16854687 13.3933151,6.69715885 C13.3933151,6.32289583 13.2476823,5.97098177 12.9830859,5.7068776 Z" id="Fill-4" fill="#FFFFFF" mask="url(#mask-2)"></path>
            </g>
        </g>
    </g>
</svg>