<?xml version="1.0" encoding="UTF-8"?>
<svg aria-hidden="true" class="svg-icon">
    <use xmlns:xlink="http://www.w3.org/1999/xlink" xlink:href="#icon-project">
        <svg class="icon" viewBox="0 0 1024 1024" id="icon-project" width="100%" height="100%">
            <path d="M811.104 909.024 215.552 909.024c-82.24 0-148.896-66.688-148.896-148.864l0-496.32c0-82.176 66.656-148.864 148.896-148.864l248.128 0c64.704 0 119.296 41.568 139.776 99.264l207.616 0c82.272 0 148.896 66.688 148.896 148.896l0 397.024C960 842.336 893.376 909.024 811.104 909.024L811.104 909.024zM811.104 313.504 513.344 313.504l0-49.664c0-27.424-22.24-49.632-49.632-49.632l-248.128 0c-27.36 0-49.632 22.176-49.632 49.632l0 496.32c0 27.424 22.272 49.632 49.632 49.632l49.632 0L265.216 462.368c0-27.424 22.24-49.632 49.632-49.632l545.952 0 0-49.632C860.736 335.68 838.496 313.504 811.104 313.504L811.104 313.504zM811.104 313.504"></path>
        </svg>
    </use>
</svg>
