<?xml version="1.0" encoding="UTF-8"?>
<svg width="14px" height="14px" viewBox="0 0 14 14" version="1.1" xmlns="http://www.w3.org/2000/svg" xmlns:xlink="http://www.w3.org/1999/xlink">
    <!-- Generator: Sketch 52.2 (67145) - http://www.bohemiancoding.com/sketch -->
    <title>福利站商品管理</title>
    <desc>Created with Sketch.</desc>
    <defs>
        <polygon id="path-1" points="0.00110526316 0.0110710526 8.95996316 0.0110710526 8.95996316 8.97103421 0.00110526316 8.97103421"></polygon>
    </defs>
    <g id="Page-1" stroke="none" stroke-width="1" fill="none" fill-rule="evenodd">
        <g id="福利站商品管理">
            <g id="分组" transform="translate(0.626316, 4.402632)">
                <mask id="mask-2" fill="white">
                    <use xlink:href="#path-1"></use>
                </mask>
                <g id="Clip-2"></g>
                <path d="M7.5453,0.0110710526 L1.41475526,0.0110710526 C0.634734211,0.0110710526 0,0.645805263 0,1.42582632 L0,7.55627895 C0,8.3363 0.634734211,8.97103421 1.41475526,8.97103421 L7.5453,8.97103421 C8.32522895,8.97103421 8.95996316,8.3363 8.95996316,7.55627895 L8.95996316,1.42582632 C8.95996316,0.645805263 8.32522895,0.0110710526 7.5453,0.0110710526 Z M8.01682368,7.55627895 C8.01682368,7.81677105 7.8057,8.02789474 7.5453,8.02789474 L1.41475526,8.02789474 C1.15490789,8.02789474 0.943139474,7.81662368 0.943139474,7.55627895 L0.943139474,1.42582632 C0.943139474,1.16597895 1.15490789,0.954210526 1.41475526,0.954210526 L7.5453,0.954210526 C7.80555263,0.954210526 8.01682368,1.16597895 8.01682368,1.42582632 L8.01682368,7.55627895 Z" id="Fill-1" fill="#FFFFFF" mask="url(#mask-2)"></path>
            </g>
            <path d="M10.0578947,2.52733158 L3.92735,2.52733158 C3.66693158,2.52733158 3.45582632,2.73852895 3.45582632,2.99894737 C3.45582632,3.25936579 3.66693158,3.47056316 3.92735,3.47056316 L10.0578947,3.47056316 C10.3182395,3.47056316 10.5295105,3.68225789 10.5295105,3.94208684 L10.5295105,10.0726316 C10.5295105,10.33305 10.7406158,10.5442474 11.0010342,10.5442474 C11.2615263,10.5442474 11.47265,10.33305 11.47265,10.0726316 L11.47265,3.94208684 C11.47265,3.16213947 10.8379158,2.52733158 10.0578947,2.52733158 Z M7.22838421,10.5442474 L2.98421053,10.5442474 C2.72379211,10.5442474 2.51259474,10.7553526 2.51259474,11.0157711 C2.51259474,11.2762632 2.72379211,11.4873868 2.98421053,11.4873868 L7.22838421,11.4873868 C7.48887632,11.4873868 7.7,11.2762632 7.7,11.0157711 C7.7,10.7553526 7.48887632,10.5442474 7.22838421,10.5442474 Z" id="Fill-3" fill="#FFFFFF"></path>
            <path d="M11.9441737,0.641052632 L5.81372105,0.641052632 C5.55322895,0.641052632 5.34210526,0.852176316 5.34210526,1.11266842 C5.34210526,1.37306842 5.55322895,1.58419211 5.81372105,1.58419211 L11.9441737,1.58419211 C12.2045184,1.58419211 12.4157895,1.79596053 12.4157895,2.05580789 L12.4157895,8.18635263 C12.4157895,8.44675263 12.6269132,8.65787632 12.8874053,8.65787632 C13.1478053,8.65787632 13.3589289,8.44675263 13.3589289,8.18635263 L13.3589289,2.05580789 C13.3589289,1.27578684 12.7241947,0.641052632 11.9441737,0.641052632 Z" id="Fill-4" fill="#FFFFFF"></path>
        </g>
    </g>
</svg>