<?xml version="1.0" encoding="UTF-8"?>
<svg width="14px" height="14px" viewBox="0 0 14 14" version="1.1" xmlns="http://www.w3.org/2000/svg" xmlns:xlink="http://www.w3.org/1999/xlink">
    <!-- Generator: Sketch 52.2 (67145) - http://www.bohemiancoding.com/sketch -->
    <title>供应商商品管理</title>
    <desc>Created with Sketch.</desc>
    <defs>
        <polygon id="path-1" points="0.405263158 0.405263158 13.6083868 0.405263158 13.6083868 13.6094921 0.405263158 13.6094921"></polygon>
    </defs>
    <g id="Page-1" stroke="none" stroke-width="1" fill="none" fill-rule="evenodd">
        <g id="供应商商品管理">
            <mask id="mask-2" fill="white">
                <use xlink:href="#path-1"></use>
            </mask>
            <g id="Clip-2"></g>
            <path d="M11.7231211,8.89370263 C11.3958711,8.89370263 11.0922,8.98516316 10.8238789,9.13231053 L8.78050526,7.62839737 C8.84886579,7.43318947 8.89370263,7.22615526 8.89370263,7.00733158 C8.89370263,6.94134737 8.88095526,6.87912105 8.87434211,6.8145 L10.7616342,5.68175263 C11.0219053,5.92675263 11.3657158,6.06354737 11.7231211,6.06419211 C12.5045053,6.06419211 13.1378763,5.43082105 13.1378763,4.64943684 C13.1378763,3.86812632 12.5045053,3.23477368 11.7231211,3.23477368 C10.9418105,3.23477368 10.3084579,3.86812632 10.3084579,4.64943684 C10.3084579,4.71549474 10.3192526,4.77867895 10.3277263,4.84236053 L8.53952105,5.91516579 C8.28227105,5.55588158 7.90686842,5.29842895 7.47894737,5.18805 L7.47894737,4.11091579 C8.29004474,3.90016053 8.89370263,3.16777632 8.89370263,2.29154211 C8.89370263,1.25126842 8.04769737,0.405263158 7.00733158,0.405263158 C5.96705789,0.405263158 5.12105263,1.25126842 5.12105263,2.29154211 C5.12105263,3.16777632 5.72471053,3.90016053 6.53580789,4.11091579 L6.53580789,5.18805 C6.07570526,5.30699474 5.67757105,5.59539474 5.42096579,5.99533421 L3.67378421,4.94706579 C3.79991316,4.36076053 3.54273684,3.75868684 3.03192105,3.44444211 C2.52116053,3.13028947 1.86780263,3.17223421 1.40136316,3.54922105 C0.935015789,3.92613421 0.756921053,4.55618947 0.957028947,5.12155 C1.15713684,5.68685526 1.69193684,6.06456053 2.29154211,6.06419211 C2.61333947,6.06305 2.92491316,5.95116053 3.17389211,5.74729474 L5.12954474,6.92106579 C5.12860526,6.95028158 5.12105263,6.97769211 5.12105263,7.00733158 C5.12105263,7.22667105 5.16588947,7.43368684 5.23467368,7.62941053 L3.21397632,9.14503947 C2.9337,8.98227105 2.61571579,8.89563684 2.29154211,8.89370263 C1.25126842,8.89370263 0.405263158,9.73970789 0.405263158,10.7799816 C0.405263158,11.8202737 1.25126842,12.6663526 2.29154211,12.6663526 C3.33190789,12.6663526 4.17791316,11.8202737 4.17791316,10.7799816 C4.17791316,10.4235158 4.07271053,10.0938711 3.90058421,9.80898947 L5.76190263,8.41317105 C5.9836,8.61018421 6.24877105,8.75193421 6.53580789,8.82670526 L6.53580789,10.8667632 C5.97166316,11.0647158 5.59366316,11.5969184 5.59266842,12.1947368 C5.59266842,12.9760474 6.22602105,13.6094921 7.00733158,13.6094921 C7.78871579,13.6094921 8.42208684,12.9760474 8.42208684,12.1947368 C8.42101842,11.5969184 8.04309211,11.0647158 7.47894737,10.8667632 L7.47894737,8.82670526 C7.76640789,8.75208158 8.03194737,8.61018421 8.25377368,8.41267368 L10.1249658,9.78970263 C9.93778947,10.0861711 9.83792895,10.4294105 9.83684211,10.7799816 C9.83684211,11.8202737 10.6828474,12.6663526 11.7231211,12.6663526 C12.7634868,12.6663526 13.6094921,11.8202737 13.6094921,10.7799816 C13.6094921,9.73970789 12.7634868,8.89370263 11.7231211,8.89370263 Z M6.06419211,2.29154211 C6.06419211,1.77144211 6.48723158,1.34840263 7.00733158,1.34840263 C7.52752368,1.34840263 7.95056316,1.77144211 7.95056316,2.29154211 C7.95056316,2.81173421 7.52752368,3.23477368 7.00733158,3.23477368 C6.48723158,3.23477368 6.06419211,2.81173421 6.06419211,2.29154211 Z M2.29154211,11.7231211 C1.77144211,11.7231211 1.34840263,11.3001737 1.34840263,10.7799816 C1.34840263,10.2598816 1.77144211,9.83684211 2.29154211,9.83684211 C2.81173421,9.83684211 3.23477368,10.2598816 3.23477368,10.7799816 C3.23477368,11.3001737 2.81173421,11.7231211 2.29154211,11.7231211 Z M7.00733158,7.95056316 C6.48723158,7.95056316 6.06419211,7.52752368 6.06419211,7.00733158 C6.06419211,6.48723158 6.48723158,6.06419211 7.00733158,6.06419211 C7.52752368,6.06419211 7.95056316,6.48723158 7.95056316,7.00733158 C7.95056316,7.52752368 7.52752368,7.95056316 7.00733158,7.95056316 Z M11.7231211,11.7231211 C11.2030211,11.7231211 10.7799816,11.3001737 10.7799816,10.7799816 C10.7799816,10.2598816 11.2030211,9.83684211 11.7231211,9.83684211 C12.2433132,9.83684211 12.6663526,10.2598816 12.6663526,10.7799816 C12.6663526,11.3001737 12.2433132,11.7231211 11.7231211,11.7231211 Z" id="Fill-1" fill="#FFFFFF" mask="url(#mask-2)"></path>
        </g>
    </g>
</svg>