<?xml version="1.0" encoding="UTF-8"?>
<svg aria-hidden="true" class="svg-icon">
    <use xmlns:xlink="http://www.w3.org/1999/xlink" xlink:href="#icon-supplier">
        <svg class="icon" viewBox="0 0 1024 1024" id="icon-supplier" width="100%" height="100%">
            <path d="M834.432 666.368c-34.688-16.448-64.256-22.976-89.472-24.704-8.768-27.52 23.616-74.432 37.952-93.056 93.44-100.032 58.112-400.32-141.696-372.416C630.528 177.664 620.352 181.12 610.624 185.408c60.672 97.92 53.376 257.984-12.096 328.192C590.272 524.288 576.64 543.552 566.848 563.904c6.72 18.048 10.624 37.824 12.416 54.144 22.336 3.84 47.36 11.136 75.584 24.448 127.296 60.672 137.536 277.248 137.536 277.248L960 919.744C960 919.808 950.72 721.792 834.432 666.368L834.432 666.368zM586.688 642.432c-38.016-18.112-70.4-25.28-97.92-27.008C479.232 585.344 514.624 533.952 530.176 513.6c96.256-103.04 67.584-400-118.4-409.088L411.776 104.512c-11.584-0.512-23.68-0.256-36.48 1.536C223.936 127.232 141.12 415.872 286.4 512 304.832 544.832 308.992 594.816 309.76 614.656c-29.76 0-66.368 6.528-110.144 27.776C74.048 703.104 64 919.68 64 919.68l660.288 0C724.16 919.808 713.984 703.104 586.688 642.432L586.688 642.432zM391.872 636.096C391.104 635.648 389.76 634.944 388.928 634.496c1.6 0.256 3.264 0.256 4.928 0.448C393.28 635.328 392.32 635.84 391.872 636.096L391.872 636.096zM391.872 636.096"
                  p-id="13046"></path>
        </svg>
    </use>
</svg>
