<?xml version="1.0" encoding="UTF-8"?>
<svg width="14px" height="14px" viewBox="0 0 14 14" version="1.1" xmlns="http://www.w3.org/2000/svg" xmlns:xlink="http://www.w3.org/1999/xlink">
    <!-- Generator: Sketch 52.2 (67145) - http://www.bohemiancoding.com/sketch -->
    <title>用户管理</title>
    <desc>Created with Sketch.</desc>
    <g id="Page-1" stroke="none" stroke-width="1" fill="none" fill-rule="evenodd">
        <g id="用户管理" fill="#FFFFFF">
            <path d="M7.69201754,11.8140877 L7.67989474,11.8181404 C4.89042105,12.0211228 1.78961404,11.7835263 1.13122807,11.440386 C1.28933333,11.016386 2.29447368,10.3907719 4.25938596,10.1752456 C4.48712281,10.1502281 4.65954386,9.95785965 4.65954386,9.72877193 L4.65954386,9.19477193 C4.65954386,9.04250877 4.58229825,8.90057895 4.45429825,8.81750877 C3.73568421,8.35315789 3.10512281,7.58868421 2.72422807,6.72101754 C2.68180702,6.62480702 2.60717544,6.54633333 2.51315789,6.49912281 C2.3914386,6.43854386 2.20819298,6.21978947 2.02678947,5.52098246 C1.95717544,5.25329825 2.00478947,5.06107018 2.17591228,4.91687719 C2.27152632,4.83601754 2.32901754,4.71924561 2.33491228,4.59396491 C2.43098246,2.44670175 3.63014035,1.16489474 5.54159649,1.16489474 C7.41487719,1.16489474 8.56064912,2.37933333 8.6845614,4.49652632 C8.69312281,4.63885965 8.76857895,4.76864912 8.88761404,4.84636842 C9.06989474,4.96540351 9.1247193,5.13563158 9.06140351,5.38173684 C8.88535088,6.05942105 8.71017544,6.20224561 8.64233333,6.23191228 C8.53131579,6.28105263 8.44496491,6.37308772 8.40296491,6.487 C8.05222807,7.43868421 7.38754386,8.30778947 6.62535088,8.81210526 C6.49964912,8.89529825 6.42414035,9.036 6.42414035,9.18668421 L6.42414035,9.72835088 C6.42414035,9.95745614 6.5965614,10.1498246 6.8242807,10.1747719 C6.98285965,10.1918246 7.23073684,10.2304737 7.56894737,10.2892807 C7.81284211,10.330193 8.04591228,10.1675789 8.08812281,9.92373684 C8.13035088,9.67984211 7.96642105,9.44677193 7.72259649,9.40454386 C7.61924561,9.38645614 7.51575439,9.36912281 7.41221053,9.35240351 C8.17126316,8.76268421 8.80359649,7.90942105 9.18715789,6.95184211 C9.60978947,6.65770175 9.80605263,6.08910526 9.93091228,5.60761404 C10.0697018,5.07321053 9.93359649,4.57731579 9.56619298,4.23959649 C9.34745614,1.78291228 7.82045614,0.266666667 5.54159649,0.266666667 C3.18373684,0.266666667 1.62794737,1.83547368 1.4474386,4.37433333 C1.12719298,4.73363158 1.02117544,5.22273684 1.1572807,5.74596491 C1.35354386,6.50185965 1.60505263,6.96396491 1.96121053,7.21280702 C2.35731579,8.05805263 2.95826316,8.81484211 3.65214035,9.34884211 C1.54440351,9.67621053 0.210526316,10.5183158 0.210526316,11.5535965 C0.210526316,11.6811404 0.250070175,11.8702105 0.43777193,12.0448947 C1.04407018,12.607193 3.40605263,12.7868772 5.49492982,12.7868772 C6.35677193,12.7868772 7.17235088,12.7563158 7.79845614,12.7091754 C7.83347368,12.7064912 7.86807018,12.6997193 7.9017193,12.6889474 L7.96505263,12.6687368 C8.20114035,12.5930175 8.33121053,12.3403333 8.25568421,12.1041754 C8.21991228,11.9906316 8.14021053,11.8960526 8.03433333,11.8415614 C7.92852632,11.7870175 7.80522807,11.7771579 7.69201754,11.8140877 Z" id="Fill-2"></path>
            <g id="icon_shezhi" transform="translate(8.315789, 8.228070)">
                <path d="M1.88483372,0.529533433 L1.98581195,-2.84217094e-14 L2.87783717,-2.84217094e-14 L2.95386814,0.533523585 C3.09941871,0.57545917 3.23901027,0.634018222 3.37042038,0.708043985 L3.81642324,0.404922422 L4.44724635,1.03579531 L4.12352337,1.46667972 C4.19672755,1.59876414 4.25427715,1.73883536 4.29486599,1.88474884 L4.8245614,1.98573088 L4.8245614,2.87777025 L4.29105794,2.95379759 C4.2492539,3.09897673 4.19069056,3.23877501 4.11654412,3.37037203 L4.41962826,3.81641771 L3.78880516,4.44726461 L3.3579305,4.12352293 C3.22585756,4.19671037 3.08578512,4.25428813 2.93987714,4.2948785 L2.83889892,4.8245614 L1.94689969,4.8245614 L1.87086872,4.29104432 C1.72570155,4.2492582 1.58590854,4.19069265 1.45431648,4.11651742 L1.00813816,4.41964548 L0.377308559,3.78879858 L0.701038029,3.35790768 C0.627853347,3.22567379 0.570362237,3.08536862 0.529695416,2.93983855 L8.52651283e-14,2.83885652 L8.52651283e-14,1.94679115 L0.533503463,1.87076382 C0.575437467,1.72535723 0.63399431,1.58561093 0.708017282,1.45419587 L0.404907151,1.00817618 L1.03575625,0.377322789 L1.4666244,0.701064469 C1.59882731,0.627877027 1.73912719,0.570383749 1.88467776,0.529715394 L1.88483372,0.529533433 Z M2.4034925,3.42105263 C2.95578596,3.42105263 3.40350877,2.97332982 3.40350877,2.42103636 C3.40350877,1.86874289 2.95578596,1.42105263 2.4034925,1.42105263 C1.85119903,1.42105263 1.40350877,1.86874289 1.40350877,2.42103636 C1.40350877,2.97332982 1.85119903,3.42105263 2.4034925,3.42105263 Z" id="路径-2"></path>
            </g>
        </g>
    </g>
</svg>