<?xml version="1.0" encoding="UTF-8"?>
<svg aria-hidden="true" class="svg-icon"><use xmlns:xlink="http://www.w3.org/1999/xlink" xlink:href="#icon-workorder">
    <svg class="icon" viewBox="0 0 1024 1024" id="icon-workorder" width="100%" height="100%"><path d="M960 896H64a64 64 0 0 1-64-64v-42.688a64 64 0 0 1 64-64h896a64 64 0 0 1 64 64V832a64 64 0 0 1-64 64z m-21.312-106.688a21.312 21.312 0 0 0-21.312-21.312H704a21.312 21.312 0 0 0-21.312 21.312V832c0 11.776 9.536 21.312 21.312 21.312h213.312a21.312 21.312 0 0 0 21.312-21.312v-42.688z m21.312-192H64a64 64 0 0 1-64-64v-42.624a64 64 0 0 1 64-64h896a64 64 0 0 1 64 64v42.688a64 64 0 0 1-64 63.936z m-21.312-106.624a21.312 21.312 0 0 0-21.312-21.312H618.688a21.312 21.312 0 0 0-21.312 21.312v42.688c0 11.776 9.536 21.312 21.312 21.312h298.688a21.312 21.312 0 0 0 21.312-21.312v-42.688z m21.312-192H64a64 64 0 0 1-64-64V192a64 64 0 0 1 64-64h896a64 64 0 0 1 64 64v42.688a64 64 0 0 1-64 64zM938.688 192a21.312 21.312 0 0 0-21.312-21.312h-128A21.312 21.312 0 0 0 768 192v42.688c0 11.776 9.536 21.312 21.312 21.312h128a21.312 21.312 0 0 0 21.312-21.312V192z"></path></svg>
</use></svg>
